<svg width="25" height="24" viewBox="0 0 25 24" fill="none" xmlns="http://www.w3.org/2000/svg">
<g clip-path="url(#clip0_554_238)">
<path d="M24.3346 12C24.3346 5.37188 18.8878 0 12.1673 0C5.44677 0 0 5.37188 0 12C0 18.6281 5.44677 24 12.1673 24C12.2386 24 12.3099 24 12.3812 23.9953V14.6578H9.76711V11.6531H12.3812V9.44062C12.3812 6.87656 13.9686 5.47969 16.288 5.47969C17.4002 5.47969 18.3555 5.55938 18.6312 5.59688V8.27813H17.0342C15.7747 8.27813 15.5276 8.86875 15.5276 9.73594V11.6484H18.5456L18.1511 14.6531H15.5276V23.5359C20.6131 22.0969 24.3346 17.4797 24.3346 12Z" fill="#F7F9F2"/>
</g>
<defs>
<clipPath id="clip0_554_238">
<rect width="24.3346" height="24" fill="white"/>
</clipPath>
</defs>
</svg>
