<svg width="172" height="34" viewBox="0 0 172 34" fill="none" xmlns="http://www.w3.org/2000/svg">
<rect y="3.80176" width="26.3961" height="26.3961" rx="2.9329" fill="#F4F07B"/>
<path d="M11.3405 17.2266C11.7277 17.3791 12.3493 17.5268 12.8763 17.213L12.9216 17.1875C13.4213 16.8879 13.6476 16.3209 13.7037 15.9324L13.7339 9.16824C14.0176 7.98062 15.1245 7.95818 15.6425 8.09542L22.5417 11.9979C23.3177 12.5153 22.8738 13.2571 22.566 13.4301L17.8584 16.1675L17.7806 22.1552C17.6299 23.1231 17.1952 23.5355 16.7444 23.7897C16.3236 24.0269 15.7115 24.1267 14.82 23.7862L9.4716 20.8582L4.6905 23.4712C4.38315 23.645 3.50342 23.6495 3.43273 22.7345L3.42181 14.9479C3.55913 14.4412 4.13249 13.5161 5.32744 13.87L11.3405 17.2266Z" fill="#0A211F"/>
<path d="M32.925 25V9.29464H35.7046L41.2184 21.6104L46.7096 9.29464H49.4665V25H46.8904V14.2435L42.0997 25H40.3145L35.5012 14.2435V25H32.925ZM58.0951 14.5147C56.3551 14.5147 54.954 15.6898 54.6829 17.6558H61.5751C61.5299 15.735 60.0159 14.5147 58.0951 14.5147ZM63.9253 21.294C63.2248 23.4634 61.2588 25.2034 58.2081 25.2034C54.6377 25.2034 51.9937 22.6724 51.9937 18.7631C51.9937 14.8537 54.5247 12.3453 58.2081 12.3453C61.7559 12.3453 64.2643 14.8085 64.2643 18.4693C64.2643 18.8986 64.2417 19.3054 64.1739 19.7347H54.6603C54.841 21.7911 56.3099 23.034 58.2081 23.034C59.7899 23.034 60.6712 22.2657 61.1458 21.294H63.9253ZM67.2062 21.5426V14.6503H65.7373V12.5487H67.2062V9.45282H69.8049V12.5487H72.833V14.6503H69.8049V21.5426C69.8049 22.4691 70.1665 22.8532 71.2512 22.8532H72.833V25H70.7992C68.5847 25 67.2062 24.0735 67.2062 21.5426ZM74.3486 18.7179C74.3486 14.8763 76.9474 12.3453 80.224 12.3453C82.3256 12.3453 83.7719 13.3396 84.5402 14.3565V12.5487H87.1389V25H84.5402V23.147C83.7493 24.2091 82.2578 25.2034 80.1788 25.2034C76.9474 25.2034 74.3486 22.5595 74.3486 18.7179ZM84.5402 18.7631C84.5402 16.0965 82.7098 14.5825 80.7664 14.5825C78.8456 14.5825 76.9926 16.0287 76.9926 18.7179C76.9926 21.407 78.8456 22.9662 80.7664 22.9662C82.7098 22.9662 84.5402 21.4522 84.5402 18.7631ZM90.5225 25V9.29464H93.3021L98.8159 21.6104L104.307 9.29464H107.064V25H104.488V14.2435L99.6972 25H97.912L93.0987 14.2435V25H90.5225ZM122.314 18.7631C122.314 22.6724 119.421 25.2034 115.851 25.2034C112.303 25.2034 109.614 22.6724 109.614 18.7631C109.614 14.8537 112.416 12.3453 115.964 12.3453C119.512 12.3453 122.314 14.8537 122.314 18.7631ZM112.235 18.7631C112.235 21.5878 113.907 22.9662 115.851 22.9662C117.772 22.9662 119.67 21.5878 119.67 18.7631C119.67 15.9383 117.839 14.5825 115.919 14.5825C113.975 14.5825 112.235 15.9383 112.235 18.7631ZM124.002 18.7179C124.002 14.8763 126.6 12.3453 129.9 12.3453C131.527 12.3453 133.244 13.1136 134.193 14.2887V8.27774H136.792V25H134.193V23.1244C133.402 24.2543 131.911 25.2034 129.877 25.2034C126.6 25.2034 124.002 22.5595 124.002 18.7179ZM134.193 18.7631C134.193 16.0965 132.363 14.5825 130.419 14.5825C128.499 14.5825 126.646 16.0287 126.646 18.7179C126.646 21.407 128.499 22.9662 130.419 22.9662C132.363 22.9662 134.193 21.4522 134.193 18.7631ZM145.418 14.5147C143.678 14.5147 142.277 15.6898 142.006 17.6558H148.898C148.853 15.735 147.339 14.5147 145.418 14.5147ZM151.248 21.294C150.548 23.4634 148.582 25.2034 145.531 25.2034C141.961 25.2034 139.317 22.6724 139.317 18.7631C139.317 14.8537 141.848 12.3453 145.531 12.3453C149.079 12.3453 151.587 14.8085 151.587 18.4693C151.587 18.8986 151.565 19.3054 151.497 19.7347H141.983C142.164 21.7911 143.633 23.034 145.531 23.034C147.113 23.034 147.994 22.2657 148.469 21.294H151.248ZM154.123 25V8.27774H156.699V25H154.123ZM169.369 21.52C169.369 23.6215 167.538 25.2034 164.6 25.2034C161.618 25.2034 159.516 23.4408 159.403 21.181H162.07C162.16 22.1979 163.132 23.034 164.555 23.034C166.047 23.034 166.838 22.4013 166.838 21.5426C166.838 19.102 159.606 20.5031 159.606 15.9383C159.606 13.9498 161.459 12.3453 164.397 12.3453C167.222 12.3453 169.075 13.8594 169.21 16.3451H166.634C166.544 15.2604 165.708 14.5147 164.307 14.5147C162.928 14.5147 162.205 15.0796 162.205 15.9157C162.205 18.4241 169.233 17.023 169.369 21.52Z" fill="white"/>
</svg>
