<svg width="25" height="24" viewBox="0 0 25 24" fill="none" xmlns="http://www.w3.org/2000/svg">
<g clip-path="url(#clip0_554_240)">
<path d="M15.0406 12C15.0406 13.2686 13.998 14.2969 12.7117 14.2969C11.4255 14.2969 10.3828 13.2686 10.3828 12C10.3828 10.7314 11.4255 9.70312 12.7117 9.70312C13.998 9.70312 15.0406 10.7314 15.0406 12Z" fill="#F7F9F2"/>
<path d="M18.1572 7.93573C18.0452 7.63654 17.8666 7.36572 17.6346 7.14343C17.4092 6.91455 17.1348 6.7384 16.8312 6.62799C16.585 6.53369 16.2152 6.42145 15.534 6.39087C14.7971 6.35773 14.5762 6.35059 12.7107 6.35059C10.845 6.35059 10.6241 6.35754 9.88741 6.39069C9.20623 6.42145 8.83622 6.53369 8.59022 6.62799C8.28667 6.7384 8.01208 6.91455 7.78687 7.14343C7.5548 7.36572 7.3762 7.63635 7.26406 7.93573C7.16845 8.17853 7.05464 8.54346 7.02363 9.21527C6.99003 9.94183 6.98279 10.1597 6.98279 11.9998C6.98279 13.8396 6.99003 14.0575 7.02363 14.7842C7.05464 15.4561 7.16845 15.8208 7.26406 16.0636C7.3762 16.363 7.55462 16.6336 7.78669 16.8559C8.01208 17.0848 8.28648 17.2609 8.59003 17.3713C8.83622 17.4658 9.20623 17.5781 9.88741 17.6086C10.6241 17.6418 10.8449 17.6487 12.7105 17.6487C14.5764 17.6487 14.7973 17.6418 15.5338 17.6086C16.215 17.5781 16.585 17.4658 16.8312 17.3713C17.4406 17.1395 17.9222 16.6646 18.1572 16.0636C18.2528 15.8208 18.3666 15.4561 18.3978 14.7842C18.4314 14.0575 18.4385 13.8396 18.4385 11.9998C18.4385 10.1597 18.4314 9.94183 18.3978 9.21527C18.3668 8.54346 18.253 8.17853 18.1572 7.93573ZM12.7107 15.5379C10.7292 15.5379 9.12287 13.9539 9.12287 11.9996C9.12287 10.0453 10.7292 8.46124 12.7107 8.46124C14.6921 8.46124 16.2984 10.0453 16.2984 11.9996C16.2984 13.9539 14.6921 15.5379 12.7107 15.5379ZM16.4402 9.14825C15.9772 9.14825 15.6018 8.77802 15.6018 8.32135C15.6018 7.86469 15.9772 7.49445 16.4402 7.49445C16.9033 7.49445 17.2787 7.86469 17.2787 8.32135C17.2785 8.77802 16.9033 9.14825 16.4402 9.14825Z" fill="#F7F9F2"/>
<path d="M12.7115 0C5.99271 0 0.544189 5.3736 0.544189 12C0.544189 18.6264 5.99271 24 12.7115 24C19.4303 24 24.8788 18.6264 24.8788 12C24.8788 5.3736 19.4303 0 12.7115 0ZM19.656 14.8409C19.6223 15.5744 19.504 16.0752 19.3313 16.5135C18.9684 17.4391 18.2265 18.1708 17.288 18.5288C16.8437 18.6991 16.3357 18.8156 15.5922 18.8491C14.8471 18.8826 14.6091 18.8906 12.7117 18.8906C10.8141 18.8906 10.5762 18.8826 9.83101 18.8491C9.08744 18.8156 8.57948 18.6991 8.1352 18.5288C7.66883 18.3558 7.24664 18.0846 6.8976 17.7339C6.54225 17.3899 6.26729 16.9733 6.09185 16.5135C5.91918 16.0754 5.80092 15.5744 5.76713 14.8411C5.73278 14.1061 5.7248 13.8713 5.7248 12C5.7248 10.1287 5.73278 9.89392 5.76694 9.15912C5.80073 8.4256 5.91881 7.9248 6.09148 7.48645C6.26692 7.02667 6.54207 6.61011 6.8976 6.26605C7.24646 5.91541 7.66883 5.64423 8.13502 5.47119C8.57948 5.3009 9.08726 5.18445 9.83101 5.15094C10.5761 5.11743 10.8141 5.10938 12.7115 5.10938C14.6089 5.10938 14.8469 5.11743 15.592 5.15112C16.3357 5.18445 16.8435 5.3009 17.288 5.47101C17.7542 5.64404 18.1765 5.91541 18.5256 6.26605C18.8809 6.61029 19.1561 7.02667 19.3313 7.48645C19.5042 7.9248 19.6223 8.4256 19.6562 9.15912C19.6902 9.89392 19.6982 10.1287 19.6982 12C19.6982 13.8713 19.6902 14.1061 19.656 14.8409Z" fill="#F7F9F2"/>
</g>
<defs>
<clipPath id="clip0_554_240">
<rect width="24.3346" height="24" fill="white" transform="translate(0.544067)"/>
</clipPath>
</defs>
</svg>
