<svg width="25" height="24" viewBox="0 0 25 24" fill="none" xmlns="http://www.w3.org/2000/svg">
<g clip-path="url(#clip0_554_248)">
<path d="M12.7991 0C6.08035 0 0.631836 5.3736 0.631836 12C0.631836 18.6264 6.08035 24 12.7991 24C19.5179 24 24.9664 18.6264 24.9664 12C24.9664 5.3736 19.5179 0 12.7991 0ZM9.26346 18.1406H6.30017V9.34808H9.26346V18.1406ZM7.78191 8.14746H7.7626C6.76822 8.14746 6.1251 7.47235 6.1251 6.6286C6.1251 5.76581 6.7879 5.10938 7.80159 5.10938C8.81528 5.10938 9.4391 5.76581 9.45841 6.6286C9.45841 7.47235 8.81528 8.14746 7.78191 8.14746ZM19.9485 18.1406H16.9856V13.4368C16.9856 12.2547 16.5565 11.4485 15.4843 11.4485C14.6658 11.4485 14.1782 11.9923 13.964 12.5173C13.8856 12.7051 13.8665 12.9677 13.8665 13.2305V18.1406H10.9034C10.9034 18.1406 10.9422 10.173 10.9034 9.34808H13.8665V10.593C14.2603 9.9939 14.9648 9.14172 16.537 9.14172C18.4866 9.14172 19.9485 10.3984 19.9485 13.099V18.1406Z" fill="#F7F9F2"/>
</g>
<defs>
<clipPath id="clip0_554_248">
<rect width="24.3346" height="24" fill="white" transform="translate(0.631836)"/>
</clipPath>
</defs>
</svg>
