<svg width="160" height="28" viewBox="0 0 160 28" fill="none" xmlns="http://www.w3.org/2000/svg">
<path d="M46.1337 8.24418V23H43.7134V12.8939L39.2123 23H37.535L33.0127 12.8939V23H30.5924V8.24418H33.2038L38.3843 19.8153L43.5435 8.24418H46.1337ZM60.0368 16.8641C60.0368 17.3029 60.0085 17.6992 59.9519 18.0531H51.0135C51.0842 18.9873 51.431 19.7374 52.0538 20.3036C52.6766 20.8698 53.4409 21.1529 54.3468 21.1529C55.649 21.1529 56.569 20.6079 57.1069 19.5181H59.7183C59.3645 20.5938 58.7205 21.4784 57.7863 22.172C56.8663 22.8514 55.7198 23.1911 54.3468 23.1911C53.2286 23.1911 52.2237 22.9434 51.3319 22.448C50.4544 21.9384 49.7608 21.2307 49.2513 20.3248C48.7559 19.4048 48.5082 18.3432 48.5082 17.1401C48.5082 15.937 48.7488 14.8825 49.23 13.9767C49.7254 13.0566 50.4119 12.3489 51.2895 11.8535C52.1812 11.3581 53.2003 11.1104 54.3468 11.1104C55.4508 11.1104 56.4345 11.351 57.298 11.8323C58.1614 12.3135 58.8337 12.9929 59.3149 13.8705C59.7962 14.7339 60.0368 15.7318 60.0368 16.8641ZM57.5103 16.0998C57.4961 15.2081 57.1776 14.4933 56.5549 13.9554C55.9321 13.4176 55.1607 13.1486 54.2406 13.1486C53.4055 13.1486 52.6907 13.4176 52.0963 13.9554C51.5018 14.4791 51.1479 15.1939 51.0347 16.0998H57.5103ZM65.2425 13.276V19.7516C65.2425 20.1904 65.3416 20.5089 65.5397 20.707C65.752 20.891 66.1059 20.983 66.6013 20.983H68.0875V23H66.1767C65.0868 23 64.2517 22.7452 63.6714 22.2357C63.091 21.7261 62.8009 20.8981 62.8009 19.7516V13.276H61.4208V11.3015H62.8009V8.3928H65.2425V11.3015H68.0875V13.276H65.2425ZM69.5115 17.0977C69.5115 15.9229 69.7521 14.8825 70.2333 13.9767C70.7287 13.0708 71.394 12.3702 72.2291 11.8748C73.0784 11.3652 74.0125 11.1104 75.0316 11.1104C75.9517 11.1104 76.7514 11.2944 77.4308 11.6624C78.1243 12.0163 78.6764 12.4622 79.0868 13V11.3015H81.5284V23H79.0868V21.259C78.6764 21.811 78.1173 22.2711 77.4096 22.6391C76.7018 23.0071 75.8951 23.1911 74.9892 23.1911C73.9842 23.1911 73.0642 22.9363 72.2291 22.4268C71.394 21.903 70.7287 21.1812 70.2333 20.2612C69.7521 19.327 69.5115 18.2725 69.5115 17.0977ZM79.0868 17.1401C79.0868 16.3333 78.917 15.6327 78.5773 15.0382C78.2517 14.4438 77.82 13.9908 77.2822 13.6794C76.7443 13.368 76.164 13.2123 75.5412 13.2123C74.9184 13.2123 74.3381 13.368 73.8002 13.6794C73.2624 13.9767 72.8236 14.4225 72.4839 15.017C72.1583 15.5973 71.9956 16.2909 71.9956 17.0977C71.9956 17.9045 72.1583 18.6122 72.4839 19.2208C72.8236 19.8294 73.2624 20.2965 73.8002 20.6221C74.3522 20.9335 74.9326 21.0892 75.5412 21.0892C76.164 21.0892 76.7443 20.9335 77.2822 20.6221C77.82 20.3107 78.2517 19.8578 78.5773 19.2633C78.917 18.6546 79.0868 17.9469 79.0868 17.1401ZM100.249 8.24418V23H97.8285V12.8939L93.3275 23H91.6502L87.1279 12.8939V23H84.7075V8.24418H87.319L92.4994 19.8153L97.6587 8.24418H100.249ZM108.504 23.1911C107.4 23.1911 106.403 22.9434 105.511 22.448C104.619 21.9384 103.918 21.2307 103.409 20.3248C102.899 19.4048 102.645 18.3432 102.645 17.1401C102.645 15.9512 102.906 14.8967 103.43 13.9767C103.954 13.0566 104.669 12.3489 105.574 11.8535C106.48 11.3581 107.492 11.1104 108.611 11.1104C109.729 11.1104 110.741 11.3581 111.647 11.8535C112.553 12.3489 113.267 13.0566 113.791 13.9767C114.315 14.8967 114.577 15.9512 114.577 17.1401C114.577 18.3291 114.308 19.3836 113.77 20.3036C113.232 21.2236 112.496 21.9384 111.562 22.448C110.642 22.9434 109.623 23.1911 108.504 23.1911ZM108.504 21.0892C109.127 21.0892 109.708 20.9406 110.245 20.6433C110.797 20.3461 111.243 19.9002 111.583 19.3057C111.923 18.7113 112.093 17.9894 112.093 17.1401C112.093 16.2909 111.93 15.5761 111.604 14.9958C111.279 14.4013 110.847 13.9554 110.309 13.6582C109.771 13.3609 109.191 13.2123 108.568 13.2123C107.945 13.2123 107.365 13.3609 106.827 13.6582C106.303 13.9554 105.886 14.4013 105.574 14.9958C105.263 15.5761 105.107 16.2909 105.107 17.1401C105.107 18.3999 105.426 19.3765 106.063 20.0701C106.714 20.7495 107.528 21.0892 108.504 21.0892ZM116.162 17.0977C116.162 15.9229 116.403 14.8825 116.884 13.9767C117.38 13.0708 118.045 12.3702 118.88 11.8748C119.729 11.3652 120.671 11.1104 121.704 11.1104C122.468 11.1104 123.218 11.2803 123.954 11.62C124.705 11.9455 125.299 12.3843 125.738 12.9363V7.28877H128.179V23H125.738V21.2378C125.342 21.804 124.789 22.2711 124.082 22.6391C123.388 23.0071 122.589 23.1911 121.683 23.1911C120.664 23.1911 119.729 22.9363 118.88 22.4268C118.045 21.903 117.38 21.1812 116.884 20.2612C116.403 19.327 116.162 18.2725 116.162 17.0977ZM125.738 17.1401C125.738 16.3333 125.568 15.6327 125.228 15.0382C124.903 14.4438 124.471 13.9908 123.933 13.6794C123.395 13.368 122.815 13.2123 122.192 13.2123C121.569 13.2123 120.989 13.368 120.451 13.6794C119.913 13.9767 119.475 14.4225 119.135 15.017C118.809 15.5973 118.647 16.2909 118.647 17.0977C118.647 17.9045 118.809 18.6122 119.135 19.2208C119.475 19.8294 119.913 20.2965 120.451 20.6221C121.003 20.9335 121.584 21.0892 122.192 21.0892C122.815 21.0892 123.395 20.9335 123.933 20.6221C124.471 20.3107 124.903 19.8578 125.228 19.2633C125.568 18.6546 125.738 17.9469 125.738 17.1401ZM142.08 16.8641C142.08 17.3029 142.052 17.6992 141.995 18.0531H133.057C133.128 18.9873 133.475 19.7374 134.097 20.3036C134.72 20.8698 135.484 21.1529 136.39 21.1529C137.693 21.1529 138.613 20.6079 139.15 19.5181H141.762C141.408 20.5938 140.764 21.4784 139.83 22.172C138.91 22.8514 137.763 23.1911 136.39 23.1911C135.272 23.1911 134.267 22.9434 133.375 22.448C132.498 21.9384 131.804 21.2307 131.295 20.3248C130.799 19.4048 130.552 18.3432 130.552 17.1401C130.552 15.937 130.792 14.8825 131.274 13.9767C131.769 13.0566 132.455 12.3489 133.333 11.8535C134.225 11.3581 135.244 11.1104 136.39 11.1104C137.494 11.1104 138.478 11.351 139.342 11.8323C140.205 12.3135 140.877 12.9929 141.358 13.8705C141.84 14.7339 142.08 15.7318 142.08 16.8641ZM139.554 16.0998C139.54 15.2081 139.221 14.4933 138.598 13.9554C137.976 13.4176 137.204 13.1486 136.284 13.1486C135.449 13.1486 134.734 13.4176 134.14 13.9554C133.545 14.4791 133.191 15.1939 133.078 16.0998H139.554ZM146.883 7.28877V23H144.462V7.28877H146.883ZM154.307 23.1911C153.387 23.1911 152.559 23.0283 151.823 22.7028C151.101 22.3631 150.527 21.9101 150.103 21.344C149.678 20.7636 149.452 20.1196 149.423 19.4119H151.929C151.971 19.9073 152.205 20.3248 152.629 20.6645C153.068 20.9901 153.613 21.1529 154.264 21.1529C154.944 21.1529 155.467 21.0255 155.835 20.7707C156.217 20.5018 156.409 20.1621 156.409 19.7516C156.409 19.3128 156.196 18.9873 155.772 18.775C155.361 18.5626 154.703 18.3291 153.797 18.0743C152.92 17.8337 152.205 17.6002 151.653 17.3737C151.101 17.1472 150.619 16.8004 150.209 16.3333C149.813 15.8663 149.615 15.2505 149.615 14.4862C149.615 13.8634 149.799 13.2973 150.167 12.7877C150.535 12.264 151.058 11.8535 151.738 11.5563C152.431 11.259 153.224 11.1104 154.116 11.1104C155.446 11.1104 156.515 11.4501 157.322 12.1295C158.142 12.7948 158.581 13.7077 158.638 14.8684H156.217C156.175 14.3447 155.963 13.9271 155.581 13.6157C155.198 13.3043 154.682 13.1486 154.031 13.1486C153.394 13.1486 152.905 13.2689 152.566 13.5096C152.226 13.7502 152.056 14.0687 152.056 14.465C152.056 14.7764 152.169 15.0382 152.396 15.2505C152.622 15.4629 152.898 15.6327 153.224 15.7601C153.549 15.8733 154.031 16.022 154.668 16.206C155.517 16.4324 156.21 16.666 156.748 16.9066C157.3 17.1331 157.774 17.4728 158.171 17.9257C158.567 18.3786 158.772 18.9802 158.786 19.7304C158.786 20.3956 158.602 20.9901 158.234 21.5138C157.866 22.0375 157.343 22.448 156.663 22.7452C155.998 23.0425 155.213 23.1911 154.307 23.1911Z" fill="#0A211F"/>
<rect y="3.00002" width="24.8001" height="24.8001" rx="2.75557" fill="#F4F07B"/>
<path d="M10.4399 16.633C10.8037 16.7763 11.3878 16.915 11.8829 16.6202L11.9254 16.5962C12.3949 16.3147 12.6075 15.7821 12.6603 15.417L12.6886 9.06183C12.9551 7.94601 13.9952 7.92493 14.4818 8.05386L20.9639 11.7204C21.693 12.2065 21.2759 12.9034 20.9867 13.066L16.5638 15.6379L16.4906 21.2636C16.3491 22.173 15.9406 22.5604 15.5171 22.7993C15.1217 23.0222 14.5466 23.1159 13.7091 22.796L8.68401 20.045L4.19199 22.5C3.90321 22.6633 3.07668 22.6676 3.01026 21.8079L3 14.4921C3.12901 14.016 3.66771 13.1469 4.79041 13.4793L10.4399 16.633Z" fill="#0A211F"/>
</svg>
